<svg width="460" height="735" viewBox="0 0 460 735" fill="none" xmlns="http://www.w3.org/2000/svg">
<path d="M218.446 3.59766C255.309 2.92834 289.447 5.7089 320.555 11.8916C331.207 14.0087 342.05 16.6458 350.984 19.2881C352.637 19.7768 354.324 20.2693 354.712 20.376V20.377C358.011 21.2848 369.271 25.1139 374.769 27.209C379.264 28.9219 384.739 31.1958 389.416 33.251C394.225 35.3643 397.837 37.0959 398.864 37.7559H398.865C398.954 37.8126 398.997 37.8467 399.015 37.8623C399.029 37.8827 399.104 37.9961 399.218 38.3086C399.537 39.1849 399.874 40.7487 400.429 43.9844C401.285 48.9781 402.481 53.4569 404.04 57.3838C409.54 71.237 419.05 81.7782 432.188 88.5498C436.484 90.7647 439.605 92.2009 443.23 93.2354C446.699 94.2248 450.51 94.8093 456.105 95.4863C456.106 95.5418 456.106 95.5984 456.106 95.6553C456.111 97.7775 456.117 100.907 456.124 104.934C456.137 112.988 456.154 124.635 456.175 139.006C456.215 167.749 456.268 207.391 456.321 250.993C456.502 398.321 456.555 490.084 456.438 545.663C456.38 573.455 456.279 592.188 456.132 604.293C456.058 610.347 455.973 614.726 455.876 617.743C455.827 619.253 455.777 620.402 455.725 621.239C455.698 621.658 455.673 621.983 455.649 622.227C455.638 622.347 455.626 622.44 455.617 622.508C455.609 622.57 455.604 622.598 455.604 622.602C455.065 625.429 453.749 628.853 452.361 631.105C451.253 632.904 450.361 634.039 448.396 636.07C445.525 639.039 442.107 641.437 437.135 643.839C434.612 645.058 433.971 645.341 430.809 646.634C426.576 648.364 418.534 651.15 410.087 653.799C394.603 658.654 376.853 664.429 358.014 670.741C315.469 684.997 288.251 695.596 267.213 706.148C258.342 710.598 252.657 713.828 246.381 718.002C241.943 720.953 238.56 723.504 234.127 727.267L232.156 728.958C231.296 729.704 230.601 730.293 230.049 730.75C229.098 730.012 227.824 728.984 226.285 727.701C220.162 722.596 213.581 717.826 208.451 714.81C199.659 709.639 181.345 700.551 169.014 695.227C163.752 692.955 152.602 688.586 142.839 684.965H142.84C141.857 684.6 140.329 684.033 139.445 683.705C121.13 676.9 85.2625 664.844 62.9404 657.988C55.8706 655.817 54.3196 655.33 46.0625 652.689C32.4026 648.321 28.6224 646.924 23.959 644.632C17.3737 641.394 12.1707 637.508 9.22852 633.903C8.6735 633.223 7.92012 632.181 7.23438 631.155C6.50573 630.065 6.04144 629.271 5.92871 629.021C5.62722 628.354 5.24265 626.822 4.92188 623.383C4.61123 620.052 4.38492 615.3 4.19531 608.472C3.68718 590.175 3.61985 561.911 3.54102 330.461C3.50196 215.652 3.48504 156.267 3.5166 125.573C3.53239 110.221 3.55994 102.061 3.60352 97.7354C3.61155 96.9375 3.62195 96.2765 3.63086 95.7295C3.63984 95.7279 3.64918 95.7262 3.6582 95.7246C5.08768 95.4671 6.94643 95.1474 8.91602 94.8223C15.1159 93.7988 18.7945 92.7573 23.7344 90.5752C40.8349 83.021 53.7353 68.1785 58.334 50.6074C59.3072 46.8892 59.6055 44.5597 59.7275 40.0938L59.7725 38.4385L61.6953 37.5264C68.026 34.5215 72.8645 32.2952 75.1592 31.3262C76.3903 30.8063 77.9298 30.1517 78.583 29.8691C79.1687 29.6158 80.4117 29.1099 81.3203 28.7568L81.3213 28.7559C82.2579 28.3917 83.5115 27.9019 84.1104 27.665C89.4902 25.5371 97.7465 22.7276 105.999 20.2266C124.236 14.6997 151.707 9.00027 170.164 6.91113C174.779 6.38873 177.729 6.07172 180.821 5.77246L184.028 5.47266C186.656 5.23327 189.294 4.97889 189.765 4.90918L189.764 4.9082C193.302 4.38425 204.599 3.84923 218.446 3.59766Z" stroke="url(#paint0_linear_34_99)" stroke-width="7"/>
<defs>
<linearGradient id="paint0_linear_34_99" x1="29.5413" y1="-7.66176" x2="400.708" y2="544.473" gradientUnits="userSpaceOnUse">
<stop offset="0.451923" stop-color="#FFB24E"/>
<stop offset="1" stop-color="#FF6200"/>
</linearGradient>
</defs>
</svg>
