<svg width="512" height="768" viewBox="0 0 512 768" fill="none" xmlns="http://www.w3.org/2000/svg">
<path fill-rule="evenodd" clip-rule="evenodd" d="M253.398 1.79503C253.499 2.35837 252.746 1.12484 252.098 0.994402C251.45 0.863966 251.222 -0.472315 251.351 0.177027C251.48 0.827315 251.025 1.24131 250.339 1.09858C249.651 0.955859 249.338 1.24036 249.64 1.73186C250.351 2.88498 247.467 5.79899 246.319 5.08727C245.293 4.45116 243.558 8.5164 244.311 9.78956C244.601 10.2773 244.08 10.3718 243.126 10.0041C241.621 9.42472 241.576 9.5372 242.736 10.9701C243.457 11.8614 243.623 12.3463 243.104 12.0476C241.81 11.3019 237.921 12.8747 237.921 14.144C237.921 14.7111 238.411 14.8718 239.009 14.5013C239.683 14.0826 239.841 14.2414 239.424 14.9172C239.054 15.5174 238.116 16.0089 237.338 16.0089C236.458 16.0089 236.191 16.455 236.632 17.1904C237.045 17.8794 236.599 17.7802 235.564 16.9541C234.53 16.128 234.084 16.0287 234.497 16.7178C234.894 17.3813 234.743 17.8993 234.151 17.8993C233.559 17.8993 233.407 18.4172 233.805 19.0807C234.218 19.7698 233.772 19.6705 232.737 18.8444C231.312 17.7074 231.121 17.6923 231.768 18.7688C232.377 19.7811 232.181 19.9598 230.971 19.4938C229.997 19.1185 229.167 19.4002 228.857 20.2093C228.576 20.9428 227.559 21.3908 226.597 21.2046C225.635 21.0193 224.34 21.4806 223.72 22.2301C222.822 23.3142 222.307 23.3577 221.207 22.4418C219.546 21.059 216.961 20.5505 217.702 21.7518C217.99 22.2206 217.571 22.3511 216.77 22.0429C215.968 21.7339 215.603 20.9947 215.959 20.3993C216.333 19.7736 215.969 19.835 215.095 20.5448C214.062 21.3842 213.388 21.4541 212.964 20.7651C212.623 20.2121 211.883 20.0439 211.321 20.3927C210.696 20.7802 210.57 20.5845 210.999 19.8898C211.539 19.0127 212.058 19.0335 213.265 19.9796C214.653 21.0685 214.689 21.0269 213.584 19.6091C212.897 18.731 211.75 18.2376 211.033 18.5127C209.336 19.1667 205.496 15.2698 203.305 10.6695C202.09 8.11942 201.058 7.11942 199.859 7.32925C198.657 7.54002 198.37 7.2593 198.895 6.38406C199.474 5.41903 199.283 5.43131 198.047 6.43605C196.696 7.53624 196.451 7.53624 196.438 6.43605C196.426 5.37555 196.268 5.38594 195.571 6.49087C195.102 7.23378 194.046 7.94078 193.224 8.06176C192.404 8.18275 191.93 7.95968 192.172 7.56743C192.783 6.5731 188.233 6.90675 187.309 7.92377C186.884 8.39069 187.132 8.41526 187.881 7.98048C188.751 7.47386 188.982 7.56932 188.556 8.26025C188.201 8.83776 187.29 9.07122 186.532 8.78011C185.773 8.48804 185.428 7.80279 185.765 7.25741C186.165 6.60996 185.917 6.55703 185.053 7.10524C184.325 7.56744 183.446 7.95212 183.101 7.96063C182.756 7.96819 182.168 8.2801 181.795 8.6544C181.423 9.02775 182.035 9.15629 183.155 8.93984C184.277 8.72339 184.969 8.91149 184.693 9.35762C184.303 9.99089 180.902 10.0221 180.902 9.39259C180.902 9.31319 180.157 9.10525 179.248 8.93039C178.338 8.75648 177.838 9.0079 178.135 9.49089C178.433 9.97388 179.137 10.0835 179.699 9.73474C180.315 9.35289 180.45 9.54098 180.039 10.2073C179.664 10.816 178.944 11.058 178.439 10.7442C177.934 10.4313 176.838 10.7433 176.004 11.438C174.254 12.8936 173.868 12.8567 172.775 11.127C172.16 10.1544 171.974 10.2376 171.963 11.49C171.953 12.6138 171.466 12.9285 170.38 12.5108C169.445 12.1506 169.048 12.2905 169.396 12.8548C169.718 13.3765 169.382 13.8038 168.65 13.8038C167.918 13.8038 167.52 13.4786 167.764 13.0807C168.009 12.6837 167.713 12.0514 167.106 11.6752C166.468 11.2792 166.253 11.3983 166.597 11.9559C166.924 12.4862 166.28 13.7215 165.167 14.7008C164.053 15.68 163.452 15.9503 163.831 15.3C164.21 14.6507 164.117 14.1185 163.623 14.1185C163.129 14.1185 162.458 14.817 162.131 15.6715C161.805 16.5259 161.268 16.955 160.939 16.6252C160.611 16.2953 159.772 16.4994 159.076 17.0779C158.381 17.6573 157.812 17.8142 157.812 17.4267C157.812 17.0391 157.096 17.3066 156.222 18.0202C154.824 19.1592 154.709 19.11 155.268 17.6138C155.65 16.5911 155.533 16.1412 154.974 16.4881C154.461 16.8057 154.042 17.7036 154.042 18.4834C154.042 19.2632 153.611 19.6337 153.084 19.3076C152.557 18.9806 152.426 18.2112 152.794 17.5977C153.26 16.817 153.027 16.834 152.015 17.6545C151.22 18.3 150.268 18.5259 149.9 18.1563C149.531 17.7868 149.493 18.1724 149.815 19.0136C150.137 19.8548 149.882 20.8652 149.248 21.2575C148.538 21.698 148.338 21.5789 148.728 20.9465C149.076 20.3823 148.918 19.6469 148.379 19.3123C147.839 18.9777 147.459 19.0543 147.533 19.4834C147.607 19.9116 147.588 20.9002 147.49 21.68C147.362 22.6923 147.081 22.5571 146.502 21.2074C145.721 19.3851 145.69 19.3917 145.626 21.3879C145.59 22.5269 145.184 23.6923 144.724 23.9768C143.885 24.4967 141.043 21.7452 141.632 20.9834C141.806 20.7603 141.712 20.3426 141.427 20.0552C140.813 19.4399 141.462 23.2188 142.166 24.3615C142.432 24.7925 142.051 25.146 141.318 25.146C140.586 25.146 140.206 24.7915 140.473 24.3577C140.74 23.9248 140.559 23.5704 140.071 23.5704C139.582 23.5704 138.938 24.5089 138.638 25.6555C138.339 26.8029 137.794 27.44 137.427 27.0713C137.06 26.7027 135.91 27.147 134.871 28.0581C133.833 28.9693 133.293 29.1829 133.672 28.5326C134.135 27.7396 133.695 27.3511 132.332 27.3511C131.036 27.3511 130.108 28.1006 129.762 29.4267C129.246 31.4088 129.188 31.4192 128.503 29.663C127.87 28.0402 127.776 28.1016 127.705 30.1867C127.642 32.0024 127.423 32.2311 126.758 31.1772C126.282 30.422 126.142 29.3993 126.446 28.9041C126.752 28.4088 126.552 28.2831 126.002 28.6233C125.452 28.9645 125.228 30.1999 125.503 31.3691C125.998 33.4693 125.986 33.4721 124.47 31.6044C123.284 30.1432 123.062 30.0789 123.493 31.3228C124.21 33.3946 123.135 35.1461 121.697 34.2453C119.701 32.9939 118.344 33.1716 118.895 34.612C119.336 35.7633 119.592 35.7888 120.316 34.7557C121.035 33.7292 121.133 33.7425 120.841 34.8304C120.644 35.5648 119.761 36.2718 118.879 36.4013C117.998 36.5307 117.472 36.32 117.711 35.9324C117.95 35.5449 117.551 35.2273 116.824 35.2273C115.882 35.2273 115.745 35.681 116.343 36.803C116.942 37.9249 116.804 38.3786 115.863 38.3786C115.136 38.3786 114.742 38.0534 114.986 37.6555C115.231 37.2585 114.935 36.6262 114.328 36.25C113.721 35.8738 113.474 35.9703 113.78 36.4655C114.084 36.9608 113.945 37.9835 113.468 38.7387C112.77 39.8446 112.587 39.7444 112.522 38.2207C112.443 36.3975 112.416 36.3946 111.734 38.1404C111.344 39.1357 110.312 40.0553 109.439 40.1839C108.566 40.3124 108.048 40.1007 108.286 39.7132C108.526 39.3257 108.144 39.0081 107.438 39.0081C106.687 39.0081 106.38 39.5941 106.697 40.424C107.025 41.2794 106.842 41.5932 106.235 41.217C105.683 40.8748 104.97 41.2784 104.65 42.113C104.175 43.354 103.808 43.4145 102.645 42.4467C101.441 41.4448 101.32 41.5383 101.863 43.0497C102.218 44.0327 102.159 44.5204 101.734 44.1338C101.309 43.7472 100.474 44.3852 99.8795 45.5516C99.2848 46.7179 98.1661 47.6282 97.3932 47.5733C96.6214 47.5185 95.9277 48.3011 95.8514 49.3134C95.776 50.3248 95.0258 52.2057 94.1842 53.493C92.942 55.3948 92.3992 55.6197 91.2833 54.6906C90.1655 53.7605 90.0175 53.8276 90.4878 55.0554C91.3973 57.4335 90.06 58.856 88.2759 57.4071C87.0337 56.3976 86.898 56.4004 87.5097 57.4203C88.6491 59.3201 85.3241 62.6226 83.6635 61.2407C82.639 60.3882 82.4958 60.4884 82.9698 61.7285C83.8133 63.9326 81.7908 65.9941 79.3169 65.4515C77.6355 65.0829 77.5045 65.1907 78.6449 66.0073C79.8823 66.8939 79.8673 67.0215 78.5271 67.0347C77.6845 67.0423 76.2793 68.4317 75.4047 70.1207L73.8138 73.1926L74.3868 69.6482C74.7026 67.6992 74.6149 66.1037 74.1936 66.1037C73.7714 66.1037 71.3144 67.858 68.7321 70.0026C53.1457 82.9469 35.9119 90.6738 19.1483 92.2372L12.6727 92.8402L12.7151 128.386L12.7584 163.931L17.4274 158.789C21.6317 154.159 22.0973 153.878 22.0973 155.975C22.0973 157.539 19.5734 161.198 14.4106 167.118L6.72387 175.932L7.82749 236.094C8.43444 269.184 9.58895 329.976 10.3929 371.189C11.1968 412.401 11.7208 447.065 11.5568 448.221C11.3033 450.007 10.5531 449.41 6.54669 444.24C3.95492 440.896 1.5394 437.718 1.17844 437.179C-0.538726 434.61 -0.409612 438.763 1.76559 456.106C10.1139 522.67 13.8611 576.625 12.7518 614.311C11.9244 642.423 12.1807 647.668 14.633 652.748C19.153 662.111 28.0932 667.979 47.5437 674.348C58.7854 678.029 94.9749 690.921 113.045 697.682C118.747 699.816 133.59 705.78 146.031 710.936C181.609 725.681 202.718 737.366 215.584 749.437C222.172 755.616 222.953 755.512 221.009 748.711C220.17 745.78 220.239 745.634 222.187 746.227C227.483 747.837 239.146 754.768 246.314 760.565C250.663 764.082 254.754 767.357 255.406 767.843C256.242 768.466 258.198 767.257 262.011 763.762C264.991 761.03 269.939 757.087 273.006 754.998C279.26 750.739 290.517 745.196 291.306 745.987C291.59 746.271 291.408 748.448 290.903 750.823C290.398 753.2 290.267 755.144 290.613 755.144C290.958 755.144 293.345 752.978 295.918 750.332C313.907 731.822 367.27 707.642 459.577 676.173C469.264 672.87 479.393 669.048 482.086 667.68C488.974 664.179 495.555 657.68 498.117 651.848C500.111 647.308 500.249 645.918 499.867 634.16C498.29 585.545 500.792 540.659 508.949 471.182C510.775 455.623 512.143 441.471 511.988 439.735L511.705 436.576L505.815 444.305L499.925 452.034L499.899 447.397C499.886 444.847 501.005 382.722 502.387 309.341L504.899 175.922L497.228 167.215C491.867 161.13 489.558 157.775 489.558 156.077C489.558 153.83 489.912 154.036 494.227 158.789L498.896 163.931L498.94 128.25L498.982 92.5689H495.857C481.452 92.5689 462.427 84.9214 446.318 72.6557C441.49 68.9799 437.362 66.15 437.144 66.3683C436.927 66.5857 437.362 69.6945 438.11 73.2758C438.859 76.8571 439.292 79.9668 439.074 80.187C438.855 80.4063 427.116 71.8429 412.988 61.1585C384.894 39.9098 367.825 28.2566 356.199 22.387C342.507 15.4739 325.011 10.3378 315.153 10.3378C310.814 10.3378 310.432 10.5363 309.221 13.4096C304.844 23.7963 290.971 28.525 280.536 23.1866C278.091 21.9361 274.394 19.3369 272.32 17.4097C270.247 15.4834 269.303 14.4408 270.222 15.0921C271.645 16.1006 271.805 16.0467 271.299 14.7244C270.972 13.8718 270.326 13.1204 269.863 13.0552C269.401 12.99 268.543 12.8841 267.959 12.8189C267.374 12.7537 266.266 11.6374 265.496 10.3378L264.097 7.97481L265.993 10.0882C267.522 11.7924 267.991 11.9314 268.421 10.8085C268.715 10.0419 268.59 9.51641 268.145 9.64023C266.766 10.024 262.385 4.27251 262.941 2.80464C263.23 2.04093 263.161 1.72335 262.787 2.09859C262.412 2.47383 261.234 2.03526 260.169 1.1241C258.851 -0.00255837 259.083 0.621266 260.895 3.07497C262.36 5.05797 263.364 6.87461 263.129 7.11091C262.427 7.81413 257.885 2.02041 258.453 1.09885C258.739 0.632878 257.758 2.10779 257.152 1.7316C256.463 1.30438 255.059 1.05207 255.48 1.73354C255.877 2.381 257.131 0.994617 256.26 0.994617C255.452 0.994617 254.905 0.70822 254.9 1.09858C254.895 1.48894 253.433 2.22241 251.68 4.43414C249.248 7.50033 248.358 8.10524 247.93 6.98425C247.62 6.17518 247.738 5.74417 248.192 6.02489C249.303 6.71393 251.283 4.22337 250.4 3.24699C250.016 2.82166 250.134 2.71863 250.663 3.01826C251.19 3.31882 252.527 2.18177 253.631 0.491774C254.959 -0.606862 255.088 1.79503 254.179 1.79503C253.482 1.79503 253.298 1.2317 253.398 1.79503ZM245.46 6.50126C245.46 6.99087 245.88 7.65061 246.392 7.96819C246.926 8.29901 247.084 7.91999 246.763 7.07877C246.136 5.44171 245.46 5.14209 245.46 6.50126ZM199.801 8.36706C199.497 8.8595 199.651 9.51073 200.142 9.81508C200.633 10.1194 201.283 9.96537 201.586 9.47293C201.889 8.98048 201.736 8.32925 201.245 8.0249C200.754 7.72055 200.104 7.87462 199.801 8.36706ZM190.621 10.0381C191.301 10.3113 192.114 10.2773 192.427 9.96348C192.74 9.64968 192.184 9.42661 191.191 9.46725C190.093 9.51262 189.869 9.73663 190.621 10.0381ZM157.447 16.1819C157.719 16.6233 158.336 16.7405 158.819 16.4408C160.052 15.6771 159.913 15.3784 158.324 15.3784C157.569 15.3784 157.174 15.7405 157.447 16.1819ZM275.097 17.0363C274.749 17.6015 274.888 18.489 275.406 19.0089C276.035 19.6393 276.59 19.5628 277.072 18.7811C277.571 17.9701 277.409 17.8463 276.547 18.3813C275.641 18.9427 275.464 18.7235 275.901 17.5817C276.578 15.8132 276.065 15.4664 275.097 17.0363ZM279.765 20.9711C279.392 21.6214 279.434 21.8369 279.858 21.4522C280.282 21.0666 281.304 21.2792 282.13 21.9248C283.457 22.9626 283.481 22.9069 282.337 21.4437C280.795 19.472 280.64 19.4437 279.765 20.9711ZM143.749 22.231C143.794 23.3322 144.018 23.5562 144.318 22.8029C144.591 22.1205 144.557 21.3048 144.244 20.991C143.931 20.6772 143.709 21.2348 143.749 22.231ZM137.152 25.0666C137.197 26.1677 137.42 26.3918 137.721 25.6384C137.993 24.956 137.96 24.1403 137.647 23.8265C137.334 23.5127 137.111 24.0704 137.152 25.0666ZM134.782 26.129C134.271 27.4759 134.378 27.5846 135.309 26.6583C135.954 26.0165 136.243 25.2537 135.953 24.9636C135.663 24.6725 135.136 25.197 134.782 26.129ZM121.587 32.354C121.941 33.2859 122.468 33.8105 122.759 33.5194C123.049 33.2292 122.76 32.4665 122.115 31.8247C121.184 30.8984 121.076 31.0071 121.587 32.354ZM98.0256 45.9779C97.5148 47.3248 97.6223 47.4335 98.5534 46.5072C99.198 45.8654 99.4874 45.1026 99.1971 44.8125C98.9068 44.5213 98.38 45.0459 98.0256 45.9779ZM92.2436 52.8711C92.2436 54.0951 92.5622 54.4146 93.172 53.8031C93.7827 53.1906 93.7827 52.5516 93.172 51.9392C92.5622 51.3276 92.2436 51.6471 92.2436 52.8711ZM88.601 55.9836C88.9554 56.9156 89.4822 57.4401 89.7725 57.149C90.0628 56.8589 89.7735 56.0961 89.1288 55.4543C88.1977 54.528 88.0902 54.6367 88.601 55.9836ZM85.5484 58.219C85.8896 58.5611 85.6417 59.5177 84.998 60.3456C83.9651 61.6746 84.0197 61.7001 85.4674 60.5621C86.9414 59.4023 86.9621 57.597 85.5003 57.597C85.1856 57.597 85.2072 57.8768 85.5484 58.219ZM81.1056 62.7143C81.6221 64.0744 81.4826 64.3315 80.5439 63.7502C79.6825 63.2152 79.5204 63.339 80.019 64.15C80.5402 64.995 81.0293 65.0356 81.7673 64.2956C82.5052 63.5555 82.46 62.9373 81.6052 62.0867C80.6533 61.1387 80.5543 61.2634 81.1056 62.7143Z" fill="url(#paint0_linear_34_95)"/>
<defs>
<linearGradient id="paint0_linear_34_95" x1="366.241" y1="759.02" x2="27.9098" y2="86.0428" gradientUnits="userSpaceOnUse">
<stop stop-color="#FF9C52"/>
<stop offset="1" stop-color="#FF4D00"/>
</linearGradient>
</defs>
</svg>
