<svg width="460" height="735" viewBox="0 0 460 735" fill="none" xmlns="http://www.w3.org/2000/svg">
<path fill-rule="evenodd" clip-rule="evenodd" d="M218.383 0.0980047C204.603 0.348355 193.059 0.882617 189.251 1.44649C188.907 1.49746 186.414 1.74045 183.711 1.98667C179.16 2.40087 175.941 2.73485 169.771 3.43332C151.097 5.54686 123.419 11.2906 104.984 16.8774C96.6779 19.3947 88.3228 22.2346 82.8228 24.41C82.2331 24.6433 80.9865 25.1311 80.0527 25.4942C79.1188 25.857 77.8321 26.3802 77.1931 26.6565C76.5542 26.9329 75.0261 27.5835 73.7974 28.1023C71.4226 29.1051 66.5192 31.3624 60.1948 34.3643L56.3322 36.1975L56.2284 39.9982C56.1122 44.2498 55.8413 46.3077 54.9479 49.7211C50.6305 66.2175 38.486 80.2323 22.3198 87.3737C17.6961 89.4161 14.3097 90.3842 8.34558 91.3687C4.37975 92.0234 0.842859 92.6605 0.285784 92.8205C-0.028765 92.911 -0.0368075 100.847 0.0412937 330.462C0.12011 561.866 0.186773 590.209 0.696665 608.568C1.07645 622.246 1.60993 627.965 2.73891 630.463C3.23129 631.552 5.21617 634.522 6.51744 636.116C9.88455 640.241 15.56 644.403 22.4151 647.772C27.3403 650.194 31.352 651.66 44.9967 656.023C53.2645 658.667 54.8278 659.158 61.9125 661.334C84.1822 668.173 119.985 680.208 138.226 686.986C139.111 687.315 140.639 687.882 141.622 688.247C151.367 691.861 162.449 696.205 167.626 698.44C179.865 703.724 198.042 712.748 206.677 717.826C211.594 720.718 218.017 725.364 224.044 730.389C227.518 733.286 229.76 735 230.075 735C230.399 735 231.669 734.014 234.449 731.603C239.818 726.947 243.393 724.192 248.319 720.916C254.445 716.842 259.999 713.682 268.782 709.277C289.594 698.838 316.623 688.302 359.126 674.06C377.948 667.753 395.676 661.986 411.134 657.139C419.609 654.481 427.763 651.66 432.134 649.873C435.35 648.558 436.057 648.246 438.657 646.99C443.908 644.453 447.691 641.834 450.912 638.504C453.011 636.333 454.072 635.001 455.341 632.942C456.966 630.306 458.428 626.478 459.042 623.257C460.031 618.065 460.183 545.643 459.821 250.989C459.714 163.783 459.613 92.4209 459.597 92.4056C459.581 92.3904 458.441 92.2432 457.065 92.0786C445.28 90.6686 442.275 89.8115 433.791 85.4383C421.414 79.0584 412.484 69.1686 407.293 56.092C405.842 52.4373 404.703 48.2016 403.879 43.3925C402.794 37.0665 402.345 35.8316 400.757 34.8111C398.136 33.1267 385.137 27.4148 376.015 23.9386C370.471 21.8259 359.094 17.9528 355.641 17.0025C355.297 16.9079 353.648 16.4261 351.977 15.9318C342.926 13.255 331.978 10.5935 321.237 8.45882C289.849 2.22033 255.458 -0.57516 218.383 0.0980047Z" fill="#2D2D2D"/>
</svg>
