<svg width="474" height="756" viewBox="0 0 474 756" fill="none" xmlns="http://www.w3.org/2000/svg">
<path fill-rule="evenodd" clip-rule="evenodd" d="M225.029 0.100805C210.83 0.358308 198.935 0.907834 195.011 1.48782C194.657 1.54024 192.088 1.79018 189.302 2.04343C184.613 2.46947 181.296 2.81299 174.938 3.53142C155.696 5.70534 127.175 11.6132 108.179 17.3596C99.6202 19.9489 91.0109 22.8698 85.3435 25.1074C84.7358 25.3474 83.4513 25.8491 82.489 26.2226C81.5268 26.5958 80.2009 27.1339 79.5425 27.4181C78.8841 27.7024 77.3095 28.3716 76.0434 28.9052C73.5963 29.9367 68.5437 32.2585 62.0268 35.3461L58.0467 37.2317L57.9397 41.141C57.82 45.5141 57.5408 47.6308 56.6202 51.1417C52.1714 68.1094 39.6573 82.5247 22.9991 89.8701C18.2347 91.9709 14.7452 92.9666 8.59957 93.9792C4.51305 94.6526 0.868511 95.3079 0.294482 95.4726C-0.0296405 95.5656 -0.0379277 103.728 0.0425505 339.904C0.123765 577.919 0.192457 607.072 0.717868 625.956C1.10921 640.024 1.65893 645.907 2.82227 648.476C3.32963 649.596 5.37492 652.651 6.7158 654.291C10.1854 658.534 16.0336 662.814 23.0973 666.28C28.1723 668.771 32.3062 670.278 46.3661 674.767C54.8856 677.486 56.4964 677.991 63.7967 680.229C86.7443 687.264 123.637 699.643 142.433 706.614C143.345 706.952 144.92 707.536 145.932 707.911C155.974 711.628 167.393 716.096 172.728 718.395C185.339 723.831 204.069 733.112 212.967 738.335C218.033 741.31 224.652 746.089 230.863 751.258C234.442 754.237 236.753 756 237.077 756C237.411 756 238.719 754.986 241.585 752.506C247.117 747.717 250.8 744.884 255.876 741.514C262.189 737.323 267.912 734.073 276.963 729.542C298.407 718.805 326.26 707.968 370.056 693.319C389.451 686.832 407.718 680.899 423.647 675.914C432.38 673.181 440.781 670.279 445.285 668.441C448.6 667.089 449.329 666.767 452.007 665.475C457.418 662.866 461.316 660.172 464.635 656.747C466.799 654.514 467.892 653.144 469.2 651.026C470.873 648.315 472.38 644.377 473.013 641.064C474.032 635.724 474.188 561.232 473.815 258.16C473.705 168.463 473.601 95.0615 473.585 95.0458C473.568 95.0301 472.394 94.8787 470.976 94.7095C458.832 93.2591 455.736 92.3775 446.994 87.8794C434.24 81.3173 425.038 71.1448 419.688 57.6947C418.193 53.9355 417.02 49.5788 416.171 44.6323C415.053 38.1255 414.59 36.8553 412.954 35.8058C410.253 34.0732 396.859 28.198 387.459 24.6225C381.746 22.4495 370.023 18.4657 366.465 17.4883C366.11 17.391 364.411 16.8954 362.689 16.387C353.363 13.6337 342.082 10.8962 331.014 8.7005C298.67 2.28377 263.233 -0.591594 225.029 0.100805Z" fill="url(#paint0_linear_34_97)"/>
<defs>
<linearGradient id="paint0_linear_34_97" x1="438.254" y1="756" x2="34.8399" y2="0.483993" gradientUnits="userSpaceOnUse">
<stop stop-color="#252525"/>
<stop offset="1"/>
</linearGradient>
</defs>
</svg>
